<svg xmlns="http://www.w3.org/2000/svg" width="633" height="525" fill="none" viewBox="0 0 633 525">
  <path fill="#9013FE" d="M15.241 231.524a8.9 8.9 0 0 0 1.98 1.329c24.043 12.414 34.18 24.676 36.571 27.934 10.781 36.577 45.138 45.872 66.542 45.872 2.297 0 4.448-.101 6.403-.298h.026a9.858 9.858 0 0 0 3.903-1.208c19.026-10.731 66.606-2.892 83.341 1.012.146.026.298.026.443.051h-.025a104.278 104.278 0 0 1-1.879-19.405c0-.393.05-.791.05-1.184-17.146-3.511-63.916-11.369-89.516 1.158-8.326.323-41.942-.443-50.642-32.793a9.61 9.61 0 0 0-1.063-2.499c-1.113-1.879-11.787-18.684-43.77-35.514h.025a25.848 25.848 0 0 1-7.713-19.823c1.385-11.022 12.603-22.417 32.458-32.964 5.505-2.082 27.01-12.338 38.026-48.403.398-.708 4.53-7.409 23.707-5.776 46.492 3.827 53.186-22.272 57.292-37.837a68.771 68.771 0 0 1 2.519-8.358c3.214-7.934 13.717-14.16 33.616-7.934 30.471 9.567 47.946-5.41 58.399-14.362.987-.835 1.955-1.677 2.891-2.443 22.094-18.19 48.466-32.597 106.005 7.561a47.205 47.205 0 0 0 46.339 9.364c5.34-1.157 39.203-6.96 49.655 27.093v-.025a10.6 10.6 0 0 0 .62 1.556 51.083 51.083 0 0 0 58.349 25.138c.202-.051.5-.127.696-.196a17.444 17.444 0 0 1 12.901 1.139c4.347 3.087 5.46 10.427 5.656 16.032 1.24 36.951 26.176 45.062 41.082 49.902 2.721.886 5.264 1.709 7.188 2.569 4.745 2.082 14.489 9.788 15.546 18.222.696 5.505-2.645 11.218-9.909 17.001-9.49 5.631-49.06 30.522-49.06 54.394 0 9.073-18.216 10.01-20.19 10.086-21.354-1.183-81.493-3.581-113.761 4.049.044 1.613.221 3.221.221 4.853a103.663 103.663 0 0 1-1.309 15.666c16.007-6.055 69.104-7.34 114.109-4.84l.544.019c13.888 0 40.133-6.252 40.133-29.877 0-8.554 20.614-26.397 39.867-37.691l.025.026a10.2 10.2 0 0 0 1.063-.747c16.805-13.072 19.007-26.491 17.868-35.463-2.151-17.052-17.469-29.586-27.232-33.863-2.822-1.234-5.808-2.195-8.997-3.233-13.692-4.454-26.643-8.675-27.434-31.762-.494-14.78-5.264-25.435-14.16-31.636v.026a36.085 36.085 0 0 0-29.782-3.81 31.047 31.047 0 0 1-35.419-14.33c-13.42-41.721-53.635-44.094-73.142-39.469-.265.07-.512.127-.784.222a27.485 27.485 0 0 1-27.333-4.967 9.555 9.555 0 0 0-1.437-1.215C320.701-16.44 284.991-.877 256.222 22.85c-1.038.848-2.076 1.759-3.164 2.702-9.636 8.25-19.601 16.78-39.595 10.503-32.724-10.282-51.629 4.005-57.855 19.348v-.025a90.83 90.83 0 0 0-3.341 10.756c-3.904 14.875-6.719 25.606-36.551 23.182-36.799-3.113-43.575 17.4-44.164 19.5-8.972 29.877-25.41 35.641-25.928 35.812h.025c-.65.183-1.28.431-1.879.74C17.05 159.408 2.422 175.77.271 193.96c-2.594 21.892 14.255 36.925 14.97 37.564Zm-2.967 190.877c12.654 16.165 33.786 25.087 62.802 26.592 2.278.317 22.911 3.98 44.543 32.724 29.042 38.583 86.251 18.241 88.301 17.476.254-.076 25.853-7.84 37.147 5.213l-.025-.025a10.412 10.412 0 0 0 1.904 1.683 124.1 124.1 0 0 0 66.017 18.114 146.194 146.194 0 0 0 68.143-17.5 10.772 10.772 0 0 0 2.252-1.607c.589-.545 14.73-13.319 40.114-7.808 5.904 1.98 48.118 15.122 83.455-2.227a65.311 65.311 0 0 0 28.206-28.662c3.701-6.998 14.407-19.361 44.309-23.581 46.441-6.555 55.02-45.53 53.091-66.606v.026c.147-1.139.195-2.289.145-3.436a32.023 32.023 0 0 0-11.787-22.917c-31.041-27.554-127.656-32.894-205.378-32.35a102.313 102.313 0 0 1-8.706 20.044c80.006-.867 174.913 3.986 200.961 27.112v-.026c2.917 2.082 4.796 5.271 5.17 8.801 0 .348-.051.696-.102 1.013-.025.177-.076.348-.101.519h.025a14.525 14.525 0 0 1-5.707 8.794c-6.403 4.948-23.752 11.572-68.117.253a9.82 9.82 0 0 0-10.257 3.537c-2.05 2.62-51.04 64.138-125.105 31.313a9.882 9.882 0 0 0-9.763 1.012c-3.265 2.348-80.892 56.691-146.416-1.506a9.905 9.905 0 0 0-10.503-1.683c-.822.348-81.784 34.546-128.073-26.89a9.892 9.892 0 0 0-4.423-3.313 9.893 9.893 0 0 0-5.51-.42c-20.791 4.379-59.051 7.441-73.237-2.91a11.685 11.685 0 0 1-5.188-8.801 5.119 5.119 0 0 0-.664-2.822 8.234 8.234 0 0 1 2.442-6.125c8.877-10.946 46.34-33.046 203.233-28.522a103.227 103.227 0 0 1-8.453-20.019C96.044 314.024 24.934 326.83 5.282 355.08a26.09 26.09 0 0 0-4.619 21.354 61.756 61.756 0 0 0 11.617 45.967h-.006Zm84.6-15.818c47.706 57.14 120.759 37.741 141.942 30.471a118.17 118.17 0 0 0 76.469 27.561c39.545 0 73.154-18.14 85.245-25.581 72.243 28.839 124.467-18.437 139.418-34.432 28.175 6.581 50.345 7.125 66.213 1.658h.025a39.67 39.67 0 0 1-29.484 16.982 114.015 114.015 0 0 0-24.739 6.131v-4.157a9.884 9.884 0 0 0-16.876-6.99 9.885 9.885 0 0 0-2.896 6.99v15.059a53.374 53.374 0 0 0-14.508 16.83 46.42 46.42 0 0 1-19.475 20.183c-29.687 14.591-68.364 1.266-68.731 1.139-.381-.137-.77-.251-1.164-.342a78.801 78.801 0 0 0-18.039-1.929v-11.389a9.888 9.888 0 0 0-16.877-6.991 9.887 9.887 0 0 0-2.895 6.991v14.527a59.351 59.351 0 0 0-19.551 10.376c-59.538 30.408-104.941 4.999-111.958.646a39.644 39.644 0 0 0-16.78-10.529V464.76a9.886 9.886 0 1 0-19.772 0v12.383a80.965 80.965 0 0 0-20.911 3.34c-.468.171-45.922 16.16-66.118-10.654v-.026a114.173 114.173 0 0 0-36.546-32.698v-11.889a9.885 9.885 0 0 0-16.876-6.99 9.885 9.885 0 0 0-2.896 6.99v4.448a36.45 36.45 0 0 0-2.67-.418c-23.087-1.138-39.399-7.491-48.446-18.88a35.59 35.59 0 0 1-3.708-5.808c23.41 9.067 58.184 4.518 72.635 1.999l-.032.026Z"/>
  <path fill="#9013FE" d="M316.348 370.847a84.015 84.015 0 0 0 77.634-51.882 84.01 84.01 0 0 0-18.216-91.566 84.01 84.01 0 0 0-91.572-18.222 84.006 84.006 0 0 0-51.882 77.634c.063 46.403 37.652 83.979 84.036 84.036Zm0-148.294a64.217 64.217 0 0 1 59.367 39.67 64.192 64.192 0 0 1-13.938 70.01 64.186 64.186 0 0 1-70.016 13.945 64.225 64.225 0 0 1-39.671-59.367c.051-35.47 28.795-64.208 64.258-64.258Z"/>
  <path fill="#9013FE" d="M276.804 296.7c5.46 0 9.889-4.429 9.889-9.889a29.714 29.714 0 0 1 29.655-29.649 9.888 9.888 0 0 0 6.991-16.877 9.887 9.887 0 0 0-6.991-2.895 49.475 49.475 0 0 0-49.434 49.433c0 5.461 4.429 9.877 9.89 9.877Zm49.427-123.575v-29.661a9.888 9.888 0 0 0-16.877-6.991 9.887 9.887 0 0 0-2.895 6.991v29.661a9.887 9.887 0 1 0 19.772 0Zm-66.726 25.106a9.906 9.906 0 0 0 8.574-4.941 9.894 9.894 0 0 0-.019-9.89l-14.831-25.675a9.802 9.802 0 0 0-5.986-4.6 9.85 9.85 0 0 0-10.418 3.506 9.866 9.866 0 0 0-.698 10.977l14.824 25.682a9.85 9.85 0 0 0 8.554 4.941Zm-62.36 8.358a9.855 9.855 0 0 0-7.516-1.012 9.845 9.845 0 0 0-6.973 12.135 9.835 9.835 0 0 0 4.6 5.979l25.688 14.831c4.746 2.746 10.769 1.114 13.515-3.606a9.898 9.898 0 0 0-3.632-13.496l-25.682-14.831Zm251.901 3.607a9.844 9.844 0 0 0-2.542-2.898 9.855 9.855 0 0 0-7.304-1.952 9.854 9.854 0 0 0-3.649 1.243l-25.676 14.825a9.895 9.895 0 0 0-3.638 13.495 9.899 9.899 0 0 0 13.521 3.607l25.682-14.825a9.857 9.857 0 0 0 4.601-6 9.863 9.863 0 0 0-.995-7.495Zm-75.855-11.965a9.85 9.85 0 0 0 8.554-4.941l14.824-25.682a9.844 9.844 0 0 0 1.013-7.51 10.055 10.055 0 0 0-4.619-6.011 9.843 9.843 0 0 0-7.51-.962 9.808 9.808 0 0 0-5.986 4.6l-14.83 25.675a9.886 9.886 0 0 0-.019 9.89 9.896 9.896 0 0 0 8.573 4.941Z"/>
</svg>
